<svg xmlns="http://www.w3.org/2000/svg" viewBox="0 0 44.01 90.26"><defs><style>.cls-1{fill:#006241;}.cls-2{fill:#fff;}</style></defs><title>birthday</title><g id="Layer_2" data-name="Layer 2"><g id="text"><path class="cls-1" d="M33.55,60.76A11.55,11.55,0,1,1,22,49.21,11.55,11.55,0,0,1,33.55,60.76"/><path class="cls-2" d="M22,69.75a9.45,9.45,0,1,1,9.46-9.43A9.43,9.43,0,0,1,22,69.75M43.74,33.66a.44.44,0,0,0-.23-.3l-2.1-.28-.63-5.41h0a.32.32,0,0,0-.25-.24l-37,0a.32.32,0,0,0-.26.24h0l-.62,5.41-2.11.28a.41.41,0,0,0-.23.28L0,36.85l2.32,0L8,90.25H22l14,0L41.7,36.88H44Z"/><rect class="cls-2" x="20.57" y="13.11" width="2.88" height="17"/><path class="cls-2" d="M25.55,11.2a.12.12,0,0,1-.1,0L22,8.67l-3.45,2.5a.11.11,0,0,1-.09,0s-.07,0-.09,0a.14.14,0,0,1-.06-.17l1.32-4L16.19,4.44a.15.15,0,0,1-.06-.17.15.15,0,0,1,.15-.11h4.26l1.32-4A.15.15,0,0,1,22,0a.17.17,0,0,1,.15.11l1.31,4.05h4.26a.15.15,0,0,1,.15.11.15.15,0,0,1-.06.17L24.38,7,25.69,11a.14.14,0,0,1-.05.17.11.11,0,0,1-.09,0"/></g></g></svg>
