<svg xmlns="http://www.w3.org/2000/svg" viewBox="0 0 119.37 64.5"><defs><style>.cls-1{fill:#006241;}.cls-2{fill:#fff;}.cls-3{font-size:36px;fill:#f7f7f7;font-family:Montserrat-Regular, Montserrat;}</style></defs><title>bogo</title><g id="Layer_2" data-name="Layer 2"><g id="text"><path class="cls-1" d="M30.78,30.59A10.6,10.6,0,1,1,20.18,20a10.6,10.6,0,0,1,10.6,10.59"/><path class="cls-2" d="M20.17,38.83a8.67,8.67,0,1,1,8.67-8.65,8.66,8.66,0,0,1-8.67,8.65M40.12,5.72a.42.42,0,0,0-.21-.26L38,5.2l-.57-5h0A.32.32,0,0,0,37.17,0h-34A.28.28,0,0,0,3,.22H3l-.57,5L.47,5.45a.35.35,0,0,0-.21.25L0,8.66H2.13L7.33,64.5l12.83,0L33,64.5,38.25,8.69l2.12,0Z"/><path class="cls-1" d="M109.78,30.59A10.6,10.6,0,1,1,99.18,20a10.6,10.6,0,0,1,10.6,10.59"/><path class="cls-2" d="M99.17,38.83a8.67,8.67,0,1,1,8.67-8.65,8.66,8.66,0,0,1-8.67,8.65m20-33.11a.42.42,0,0,0-.21-.26L117,5.2l-.57-5h0a.32.32,0,0,0-.24-.22h-34A.28.28,0,0,0,82,.22h0l-.57,5-1.93.27a.35.35,0,0,0-.21.25l-.26,3h2.13l5.2,55.83,12.83,0,12.84,0,5.25-55.81,2.12,0Z"/><text class="cls-3" transform="translate(49.46 43.04)">+</text></g></g></svg>
