<svg xmlns="http://www.w3.org/2000/svg" viewBox="0 0 90.17 66.88"><defs><style>.cls-1{fill:#fff;}.cls-2{fill:#231f20;}</style></defs><title>earn</title><g id="Layer_2" data-name="Layer 2"><g id="fixed"><path class="cls-1" d="M57.68,35A11.85,11.85,0,1,1,45.83,23.15,11.84,11.84,0,0,1,57.68,35"/><path class="cls-2" d="M45.06,45.06A10.06,10.06,0,1,1,55.12,35,10.05,10.05,0,0,1,45.06,45.06M68.21,6.64A.49.49,0,0,0,68,6.33L65.72,6,65.06.28h0A.36.36,0,0,0,64.79,0H25.38a.33.33,0,0,0-.27.25h0L24.44,6l-2.23.31a.46.46,0,0,0-.26.3l-.29,3.43h2.47l6,56.81H45.05l14.89,0L66,10.08l2.46,0Z"/><path class="cls-2" d="M78.6,28.09a.09.09,0,0,1-.06,0l-2.23-2.41-3,1.38h-.08s0,0-.06,0a.11.11,0,0,1,0-.14L74.77,24l-2.23-2.41a.11.11,0,0,1,0-.14.13.13,0,0,1,.13-.06l3.22.64,1.6-2.87a.12.12,0,0,1,.13-.06.13.13,0,0,1,.1.1l.39,3.27,3.22.63a.13.13,0,0,1,.1.11.14.14,0,0,1-.07.12l-3,1.38L78.75,28a.12.12,0,0,1-.07.12.08.08,0,0,1-.08,0"/><path class="cls-2" d="M88.24,38.74a.11.11,0,0,1-.08,0l-3.3-2.2L81.76,39a.16.16,0,0,1-.09,0l-.09,0a.18.18,0,0,1-.06-.17L82.6,35l-3.29-2.2a.14.14,0,0,1-.06-.16.14.14,0,0,1,.13-.1l4-.16,1.08-3.81a.14.14,0,0,1,.27,0l1.37,3.72,4-.16a.15.15,0,0,1,.14.1.14.14,0,0,1,0,.16L87,34.83l1.36,3.72a.13.13,0,0,1,0,.16l-.09,0"/><path class="cls-2" d="M18.27,27.79a.07.07,0,0,1-.06,0l-2.29-2.24L13.09,27H13L13,27a.14.14,0,0,1,0-.14L14.35,24l-2.28-2.24a.12.12,0,0,1,0-.14.14.14,0,0,1,.13-.06l3.16.47,1.42-2.87a.11.11,0,0,1,.12-.06.13.13,0,0,1,.1.1l.53,3.15,3.17.46a.11.11,0,0,1,.09.1.1.1,0,0,1-.06.12l-2.83,1.49.53,3.15a.1.1,0,0,1-.06.12.08.08,0,0,1-.07,0"/><path class="cls-2" d="M10.91,40.47a.19.19,0,0,1-.11,0l-4-3.12-4.2,2.83-.11,0a.15.15,0,0,1-.11,0,.17.17,0,0,1-.06-.21l1.73-4.76L.07,32A.19.19,0,0,1,0,31.82a.2.2,0,0,1,.18-.12l5.07.18L7,27.12A.16.16,0,0,1,7.18,27a.17.17,0,0,1,.17.13L8.75,32l5.06.18a.17.17,0,0,1,.17.13.18.18,0,0,1-.07.21l-4.2,2.83,1.39,4.87a.2.2,0,0,1-.08.21.2.2,0,0,1-.11,0"/><path class="cls-2" d="M78,51.18a.14.14,0,0,1-.08,0l-2.68-3.05-3.73,1.6h-.09l-.08,0a.17.17,0,0,1,0-.18L73.44,46l-2.67-3a.14.14,0,0,1,0-.17.14.14,0,0,1,.16-.07l4,.89L77,40.09a.14.14,0,0,1,.16-.07.14.14,0,0,1,.12.13l.37,4,4,.9a.15.15,0,0,1,.11.13.13.13,0,0,1-.09.15L77.85,47l.37,4a.15.15,0,0,1-.09.15.14.14,0,0,1-.09,0"/><path class="cls-2" d="M17.41,50.92s-.05,0-.07,0l-2.82-2.21-3,2a.11.11,0,0,1-.07,0l-.08,0a.13.13,0,0,1,0-.15l1.23-3.36L9.77,45a.13.13,0,0,1,0-.15.12.12,0,0,1,.13-.08l3.57.13,1.23-3.36a.17.17,0,0,1,.13-.09.17.17,0,0,1,.13.1l1,3.44,3.58.13a.14.14,0,0,1,.12.1.13.13,0,0,1-.05.14l-3,2,1,3.44a.13.13,0,0,1-.06.14.11.11,0,0,1-.08,0"/></g></g></svg>
