<svg xmlns="http://www.w3.org/2000/svg" xmlns:xlink="http://www.w3.org/1999/xlink" viewBox="0 0 50.95 76.28"><defs><style>.cls-1{fill:url(#Gold_Gradient_2);}.cls-2{fill:url(#Gold_Gradient_2-2);}</style><linearGradient id="Gold_Gradient_2" x1="-1.2" y1="75.99" x2="52.68" y2="-0.47" gradientUnits="userSpaceOnUse"><stop offset="0" stop-color="#c39044"/><stop offset="0.2" stop-color="#cb9c4d"/><stop offset="0.4" stop-color="#d4ac57"/><stop offset="0.6" stop-color="#dab55b"/><stop offset="0.8" stop-color="#e0c164"/><stop offset="1" stop-color="#e6cc6e"/></linearGradient><linearGradient id="Gold_Gradient_2-2" x1="-0.65" y1="76.38" x2="53.22" y2="-0.09" xlink:href="#Gold_Gradient_2"/></defs><title>goldcard</title><g id="Layer_2" data-name="Layer 2"><g id="text"><path class="cls-1" d="M46.13,0H4.82A4.82,4.82,0,0,0,0,4.82V71.46a4.82,4.82,0,0,0,4.82,4.82H46.13A4.82,4.82,0,0,0,51,71.46V4.82A4.82,4.82,0,0,0,46.13,0ZM38.35,36.23l-7,5.06,2.67,8.19a1.08,1.08,0,0,1-.38,1.17,1,1,0,0,1-.61.19,1.08,1.08,0,0,1-.62-.19l-7-5.07-7,5.07a1.07,1.07,0,0,1-1.23,0,1.05,1.05,0,0,1-.37-1.17l2.66-8.19-7-5.06a1,1,0,0,1,.61-1.88h8.62l2.66-8.2a1,1,0,0,1,2,0l2.66,8.2h8.61a1,1,0,0,1,.61,1.88Z"/><path class="cls-2" d="M27.38,35.71l-1.9-5.87-1.91,5.87a1,1,0,0,1-1,.72H16.41l5,3.62a1,1,0,0,1,.38,1.17l-1.9,5.86,5-3.62a1,1,0,0,1,1.22,0l5,3.62-1.91-5.86a1,1,0,0,1,.38-1.17l5-3.62H28.37A1,1,0,0,1,27.38,35.71Z"/></g></g></svg>
