<svg xmlns="http://www.w3.org/2000/svg" xmlns:xlink="http://www.w3.org/1999/xlink" viewBox="0 0 100.8 74.76"><defs><style>.cls-1{fill:#231f20;}.cls-2{fill:url(#Gold_Gradient_2);}.cls-3{fill:url(#Gold_Gradient_2-2);}.cls-4{fill:url(#Gold_Gradient_2-3);}.cls-5{fill:url(#Gold_Gradient_2-4);}.cls-6{fill:url(#Gold_Gradient_2-5);}.cls-7{fill:url(#Gold_Gradient_2-6);}.cls-8{fill:url(#Gold_Gradient_2-7);}</style><linearGradient id="Gold_Gradient_2" x1="24.87" y1="58.85" x2="73.19" y2="13.3" gradientUnits="userSpaceOnUse"><stop offset="0" stop-color="#c39044"/><stop offset="0.2" stop-color="#cb9c4d"/><stop offset="0.4" stop-color="#d4ac57"/><stop offset="0.6" stop-color="#dab55b"/><stop offset="0.8" stop-color="#e0c164"/><stop offset="1" stop-color="#e6cc6e"/></linearGradient><linearGradient id="Gold_Gradient_2-2" x1="37.37" y1="72.11" x2="85.69" y2="26.57" xlink:href="#Gold_Gradient_2"/><linearGradient id="Gold_Gradient_2-3" x1="47.76" y1="83.14" x2="96.08" y2="37.59" xlink:href="#Gold_Gradient_2"/><linearGradient id="Gold_Gradient_2-4" x1="5.56" y1="38.37" x2="53.89" y2="-7.17" xlink:href="#Gold_Gradient_2"/><linearGradient id="Gold_Gradient_2-5" x1="6.85" y1="39.73" x2="55.17" y2="-5.81" xlink:href="#Gold_Gradient_2"/><linearGradient id="Gold_Gradient_2-6" x1="49.15" y1="84.61" x2="97.47" y2="39.06" xlink:href="#Gold_Gradient_2"/><linearGradient id="Gold_Gradient_2-7" x1="17.65" y1="51.19" x2="65.97" y2="5.64" xlink:href="#Gold_Gradient_2"/></defs><title>gold-drink</title><g id="Layer_2" data-name="Layer 2"><g id="text"><path class="cls-1" d="M63.62,39.13A13.24,13.24,0,1,1,50.38,25.88,13.24,13.24,0,0,1,63.62,39.13"/><path class="cls-2" d="M50.37,50.37A11.24,11.24,0,1,1,61.62,39.14,11.24,11.24,0,0,1,50.37,50.37M76.25,7.43A.53.53,0,0,0,76,7.08l-2.51-.33L72.73.31h0a.38.38,0,0,0-.3-.28L28.37,0a.35.35,0,0,0-.3.28h0l-.75,6.43-2.5.34a.51.51,0,0,0-.28.34l-.33,3.83,2.77,0,6.74,63.5H50.36l16.65,0,6.81-63.49,2.75,0Z"/><path class="cls-3" d="M87.87,31.4a.08.08,0,0,1-.07,0l-2.5-2.69L82,30.22a.11.11,0,0,1-.08,0,.09.09,0,0,1-.08,0,.14.14,0,0,1,0-.15l1.79-3.21-2.49-2.69a.14.14,0,0,1,0-.16.14.14,0,0,1,.14-.07l3.6.71,1.79-3.2a.15.15,0,0,1,.15-.07.12.12,0,0,1,.1.12l.44,3.64,3.6.71a.13.13,0,0,1,.11.12.13.13,0,0,1-.07.14l-3.34,1.54L88,31.26a.12.12,0,0,1-.08.13.08.08,0,0,1-.08,0"/><path class="cls-4" d="M98.65,43.31a.17.17,0,0,1-.1,0l-3.68-2.46-3.48,2.74a.18.18,0,0,1-.09,0,.17.17,0,0,1-.1,0,.16.16,0,0,1-.06-.18l1.2-4.26-3.68-2.46a.16.16,0,0,1-.07-.18.16.16,0,0,1,.15-.12l4.43-.17,1.2-4.26a.16.16,0,0,1,.31,0l1.53,4.15,4.42-.17a.16.16,0,0,1,.16.11.16.16,0,0,1-.05.18l-3.48,2.74,1.53,4.15a.16.16,0,0,1-.05.19.16.16,0,0,1-.09,0"/><path class="cls-5" d="M20.43,31.07a.2.2,0,0,1-.08,0l-2.55-2.5-3.16,1.66a.14.14,0,0,1-.09,0,.11.11,0,0,1-.07,0,.13.13,0,0,1,0-.16L16,26.81l-2.55-2.5a.14.14,0,0,1,0-.15.13.13,0,0,1,.14-.07l3.53.52,1.59-3.2a.13.13,0,0,1,.14-.07.13.13,0,0,1,.11.11l.6,3.52,3.53.52a.13.13,0,0,1,.11.11.13.13,0,0,1-.07.14L20,27.39l.59,3.53a.11.11,0,0,1-.06.13.13.13,0,0,1-.08,0"/><path class="cls-6" d="M12.2,45.24a.19.19,0,0,1-.12,0L7.62,41.71,2.91,44.87a.17.17,0,0,1-.12,0,.26.26,0,0,1-.12,0,.2.2,0,0,1-.07-.23L4.54,39.3.08,35.81A.22.22,0,0,1,0,35.57a.21.21,0,0,1,.21-.13l5.66.2,1.94-5.33a.2.2,0,0,1,.2-.13.21.21,0,0,1,.2.15l1.56,5.45,5.66.2a.19.19,0,0,1,.19.15.2.2,0,0,1-.08.23l-4.7,3.17L12.41,45a.21.21,0,0,1-.09.23.24.24,0,0,1-.12,0"/><path class="cls-7" d="M87.24,57.21a.16.16,0,0,1-.09-.05l-3-3.42L80,55.53a.14.14,0,0,1-.11,0,.14.14,0,0,1-.09,0,.17.17,0,0,1,0-.19l2.32-3.91-3-3.41a.16.16,0,0,1,0-.2.16.16,0,0,1,.18-.07l4.43,1L86,44.81a.18.18,0,0,1,.18-.08.17.17,0,0,1,.13.15l.41,4.52,4.43,1a.15.15,0,0,1,.13.15.15.15,0,0,1-.1.16L87,52.51,87.44,57a.16.16,0,0,1-.1.17.12.12,0,0,1-.1,0"/><path class="cls-8" d="M19.47,56.92l-.09,0-3.14-2.47-3.32,2.23a.15.15,0,0,1-.09,0l-.09,0a.14.14,0,0,1,0-.17l1.37-3.75-3.14-2.47A.14.14,0,0,1,11,50l4,.15,1.37-3.76a.14.14,0,0,1,.15-.09.13.13,0,0,1,.13.1l1.1,3.85,4,.15a.14.14,0,0,1,.14.1.16.16,0,0,1-.06.17l-3.32,2.22,1.09,3.85a.13.13,0,0,1-.06.16.11.11,0,0,1-.08,0"/></g></g></svg>
