<svg xmlns="http://www.w3.org/2000/svg" viewBox="0 0 47.77 47.77"><defs><style>.cls-1{fill:#231f20;}</style></defs><title>offer</title><g id="Layer_2" data-name="Layer 2"><g id="fixed"><path class="cls-1" d="M46.87,0H.9A.9.9,0,0,0,0,.9v46a.9.9,0,0,0,.9.9h46a.9.9,0,0,0,.9-.9V.9A.9.9,0,0,0,46.87,0Zm-.61,46H1.51V9.19H46.26Z"/><path class="cls-1" d="M33.24,33.71a.43.43,0,0,1-.24-.08l-3.81-2.77-3.81,2.77a.4.4,0,0,1-.48,0,.39.39,0,0,1-.14-.45l1.45-4.48L22.4,25.93a.41.41,0,0,1-.15-.45.42.42,0,0,1,.39-.28h4.71l1.46-4.48a.4.4,0,0,1,.76,0L31,25.2h4.71a.42.42,0,0,1,.39.28.41.41,0,0,1-.15.45L32.17,28.7l1.45,4.48a.39.39,0,0,1-.14.45A.43.43,0,0,1,33.24,33.71Z"/><path class="cls-1" d="M34.38,33.25H34a.8.8,0,0,1-.32.71.76.76,0,0,1-.18.09h.85V46.84h.81V34.05H46.26v-.8H35.19V27l-.81.59Z"/><polygon class="cls-1" points="46.26 21.72 46.26 20.92 35.19 20.92 35.19 7.56 34.38 7.56 34.38 20.92 30.06 20.92 30.32 21.72 34.38 21.72 34.38 24.8 35.19 24.8 35.19 21.72 46.26 21.72"/><path class="cls-1" d="M31.79,33.25h-5.2l-1,.71a.76.76,0,0,1-.18.09H33a.76.76,0,0,1-.18-.09Z"/><path class="cls-1" d="M24.35,33.25H24V27.59L23.19,27v6.25H12.81V21.72H23.19V24.8H24V21.72h4.06l.26-.8H24V7.56h-.81V20.92H12.81V7.56H12V20.92H.93v.8H12V33.25H.93v.8H12V46.84h.81V34.05H23.19V46.84H24V34.05h.85a.76.76,0,0,1-.18-.09A.78.78,0,0,1,24.35,33.25Z"/></g></g></svg>
