<svg xmlns="http://www.w3.org/2000/svg" viewBox="0 0 36.03 66.88"><defs><style>.cls-1{fill:#231f20;}</style></defs><title>pay</title><g id="Layer_2" data-name="Layer 2"><g id="fixed"><rect class="cls-1" x="26.24" y="27.27" width="1.22" height="12.39"/><rect class="cls-1" x="28.45" y="27.27" width="0.87" height="12.39"/><rect class="cls-1" x="6.59" y="27.27" width="0.87" height="12.39"/><rect class="cls-1" x="8.63" y="27.27" width="0.87" height="12.39"/><path class="cls-1" d="M31.07,46.52H25.78V46h4.81v-4.8h.48Zm-20.82,0H5V41.23h.48V46h4.81ZM5.44,25.69H5V20.4h5.29v.49H5.44Zm25.63,0h-.48v-4.8H25.78V20.4h5.29Z"/><rect class="cls-1" x="10.5" y="27.27" width="4.14" height="12.39"/><rect class="cls-1" x="21.39" y="27.27" width="3.65" height="12.39"/><rect class="cls-1" x="15.74" y="27.27" width="1.21" height="12.39"/><rect class="cls-1" x="18.01" y="27.27" width="2.12" height="12.39"/><path class="cls-1" d="M1.39,58.54V7.6H34.64V58.54Zm10.94-55a.69.69,0,1,1-.69.69.69.69,0,0,1,.69-.69m2.27.27h6.83a.42.42,0,1,1,0,.83H14.6a.42.42,0,1,1,0-.83M32,0H4A4,4,0,0,0,0,4V62.86a4,4,0,0,0,4,4H32a4,4,0,0,0,4-4V4a4,4,0,0,0-4-4"/></g></g></svg>
